<svg width="24" height="24" viewBox="0 0 24 24" fill="none" xmlns="http://www.w3.org/2000/svg">
<g id="Icons-Filled" clip-path="url(#clip0_7032_3423)">
<path id="Vector" d="M17.2031 3V3.04688H17.25H19.5C19.8854 3.04688 20.255 3.19997 20.5275 3.47249C20.8 3.745 20.9531 4.11461 20.9531 4.5V19.5C20.9531 19.8854 20.8 20.255 20.5275 20.5275C20.255 20.8 19.8854 20.9531 19.5 20.9531H4.5C4.11461 20.9531 3.745 20.8 3.47249 20.5275C3.19997 20.255 3.04688 19.8854 3.04688 19.5V4.5C3.04688 4.11461 3.19997 3.745 3.47249 3.47249C3.745 3.19997 4.11461 3.04688 4.5 3.04688H6.75H6.79688V3V2.25C6.79688 2.06352 6.87095 1.88468 7.00282 1.75282C7.13468 1.62095 7.31352 1.54688 7.5 1.54688C7.68648 1.54688 7.86532 1.62095 7.99718 1.75282C8.12905 1.88468 8.20312 2.06352 8.20312 2.25V3V3.04688H8.25H15.75H15.7969V3V2.25C15.7969 2.06352 15.871 1.88468 16.0028 1.75282C16.1347 1.62095 16.3135 1.54688 16.5 1.54688C16.6865 1.54688 16.8653 1.62095 16.9972 1.75282C17.129 1.88468 17.2031 2.06352 17.2031 2.25V3ZM9.18878 13.6862L9.18877 13.6862C9.03925 13.5367 8.83645 13.4527 8.625 13.4527C8.41355 13.4527 8.21075 13.5367 8.06123 13.6862C7.91171 13.8358 7.82771 14.0385 7.82771 14.25C7.82771 14.4615 7.91171 14.6642 8.06123 14.8138L10.3112 17.0638C10.3112 17.0638 10.3112 17.0638 10.3112 17.0638C10.3852 17.1379 10.4731 17.1966 10.5698 17.2367C10.6666 17.2768 10.7703 17.2975 10.875 17.2975C10.9797 17.2975 11.0834 17.2768 11.1802 17.2367C11.2769 17.1966 11.3648 17.1379 11.4388 17.0638C11.4388 17.0638 11.4388 17.0638 11.4388 17.0638L15.9388 12.5638C16.0128 12.4897 16.0715 12.4018 16.1116 12.3051C16.1517 12.2084 16.1723 12.1047 16.1723 12C16.1723 11.8953 16.1517 11.7916 16.1116 11.6949C16.0715 11.5982 16.0128 11.5103 15.9388 11.4362C15.8647 11.3622 15.7768 11.3035 15.6801 11.2634C15.5834 11.2233 15.4797 11.2027 15.375 11.2027C15.2703 11.2027 15.1666 11.2233 15.0699 11.2634C14.9732 11.3035 14.8853 11.3622 14.8112 11.4362L14.8444 11.4694L14.8112 11.4362L10.875 15.3734L9.18878 13.6862ZM4.45312 7.5V7.54688H4.5H19.5H19.5469V7.5V4.5V4.45312H19.5H17.25H17.2031V4.5V5.25C17.2031 5.43648 17.129 5.61532 16.9972 5.74718C16.8653 5.87905 16.6865 5.95312 16.5 5.95312C16.3135 5.95312 16.1347 5.87905 16.0028 5.74718C15.871 5.61532 15.7969 5.43648 15.7969 5.25V4.5V4.45312H15.75H8.25H8.20312V4.5V5.25C8.20312 5.43648 8.12905 5.61532 7.99718 5.74718C7.86532 5.87905 7.68648 5.95312 7.5 5.95312C7.31352 5.95312 7.13468 5.87905 7.00282 5.74718C6.87095 5.61532 6.79688 5.43648 6.79688 5.25V4.5V4.45312H6.75H4.5H4.45312V4.5V7.5Z" fill="#7B4720" stroke="#7B4720" stroke-width="0.09375"/>
</g>
<defs>
<clipPath id="clip0_7032_3423">
<rect width="24" height="24" fill="white"/>
</clipPath>
</defs>
</svg>
