<svg width="40" height="40" viewBox="0 0 40 40" fill="none" xmlns="http://www.w3.org/2000/svg">
<g id="Instagram">
<path id="Vector" d="M20.0003 5.45459C16.0501 5.45459 15.5544 5.47186 14.0029 5.54247C12.4545 5.61338 11.3976 5.85853 10.4727 6.21823C9.5161 6.58974 8.70461 7.08671 7.89615 7.8955C7.08708 8.70398 6.59013 9.5155 6.21741 10.4719C5.85682 11.397 5.61137 12.4543 5.54167 14.0022C5.47228 15.5537 5.4541 16.0497 5.4541 20C5.4541 23.9503 5.47168 24.4446 5.54198 25.9961C5.61319 27.5446 5.85833 28.6016 6.21771 29.5264C6.58952 30.4831 7.08648 31.2946 7.89524 32.1031C8.7034 32.9122 9.51489 33.4103 10.4709 33.7819C11.3963 34.1416 12.4536 34.3867 14.0017 34.4576C15.5532 34.5282 16.0486 34.5455 19.9985 34.5455C23.949 34.5455 24.4432 34.5282 25.9947 34.4576C27.5431 34.3867 28.6013 34.1416 29.5267 33.7819C30.483 33.4103 31.2933 32.9122 32.1015 32.1031C32.9105 31.2946 33.4075 30.4831 33.7802 29.5267C34.1378 28.6016 34.3832 27.5443 34.456 25.9964C34.5256 24.4449 34.5438 23.9503 34.5438 20C34.5438 16.0497 34.5256 15.554 34.456 14.0025C34.3832 12.454 34.1378 11.397 33.7802 10.4722C33.4075 9.5155 32.9105 8.70398 32.1015 7.8955C31.2924 7.08641 30.4833 6.58944 29.5258 6.21823C28.5986 5.85853 27.541 5.61338 25.9926 5.54247C24.4411 5.47186 23.9472 5.45459 19.9958 5.45459H20.0003ZM18.6955 8.0758C19.0828 8.0752 19.5149 8.0758 20.0003 8.0758C23.8838 8.0758 24.3441 8.08974 25.8777 8.15944C27.2959 8.22429 28.0655 8.46126 28.5782 8.66035C29.257 8.92398 29.7409 9.23913 30.2497 9.74823C30.7588 10.2573 31.0739 10.7422 31.3382 11.421C31.5373 11.9331 31.7745 12.7028 31.8391 14.121C31.9088 15.6543 31.9239 16.1149 31.9239 19.9967C31.9239 23.8785 31.9088 24.3391 31.8391 25.8725C31.7742 27.2906 31.5373 28.0603 31.3382 28.5725C31.0745 29.2513 30.7588 29.7346 30.2497 30.2434C29.7406 30.7525 29.2573 31.0676 28.5782 31.3313C28.0661 31.5313 27.2959 31.7676 25.8777 31.8325C24.3444 31.9022 23.8838 31.9173 20.0003 31.9173C16.1165 31.9173 15.6562 31.9022 14.1229 31.8325C12.7048 31.767 11.9351 31.53 11.4221 31.331C10.7433 31.0673 10.2585 30.7522 9.74943 30.2431C9.24035 29.734 8.92521 29.2503 8.66097 28.5713C8.46189 28.0591 8.22462 27.2894 8.16008 25.8713C8.09039 24.3379 8.07645 23.8773 8.07645 19.9931C8.07645 16.1088 8.09039 15.6507 8.16008 14.1173C8.22493 12.6991 8.46189 11.9294 8.66097 11.4167C8.9246 10.7379 9.24035 10.2531 9.74943 9.74398C10.2585 9.23489 10.7433 8.91974 11.4221 8.6555C11.9348 8.4555 12.7048 8.21914 14.1229 8.15398C15.4647 8.09338 15.9847 8.0752 18.6955 8.07217V8.0758ZM27.7643 10.491C26.8007 10.491 26.0189 11.2719 26.0189 12.2358C26.0189 13.1994 26.8007 13.9813 27.7643 13.9813C28.7279 13.9813 29.5097 13.1994 29.5097 12.2358C29.5097 11.2722 28.7279 10.4903 27.7643 10.4903V10.491ZM20.0003 12.5303C15.8753 12.5303 12.5309 15.8749 12.5309 20C12.5309 24.1252 15.8753 27.4682 20.0003 27.4682C24.1254 27.4682 27.4686 24.1252 27.4686 20C27.4686 15.8749 24.1251 12.5303 20 12.5303H20.0003ZM20.0003 15.1516C22.6778 15.1516 24.8487 17.3222 24.8487 20C24.8487 22.6776 22.6778 24.8485 20.0003 24.8485C17.3225 24.8485 15.152 22.6776 15.152 20C15.152 17.3222 17.3225 15.1516 20.0003 15.1516Z" fill="url(#paint0_radial_6166_8145)"/>
<path id="Vector_2" d="M20.0003 5.45459C16.0501 5.45459 15.5544 5.47186 14.0029 5.54247C12.4545 5.61338 11.3976 5.85853 10.4727 6.21823C9.5161 6.58974 8.70461 7.08671 7.89615 7.8955C7.08708 8.70398 6.59013 9.5155 6.21741 10.4719C5.85682 11.397 5.61137 12.4543 5.54167 14.0022C5.47228 15.5537 5.4541 16.0497 5.4541 20C5.4541 23.9503 5.47168 24.4446 5.54198 25.9961C5.61319 27.5446 5.85833 28.6016 6.21771 29.5264C6.58952 30.4831 7.08648 31.2946 7.89524 32.1031C8.7034 32.9122 9.51489 33.4103 10.4709 33.7819C11.3963 34.1416 12.4536 34.3867 14.0017 34.4576C15.5532 34.5282 16.0486 34.5455 19.9985 34.5455C23.949 34.5455 24.4432 34.5282 25.9947 34.4576C27.5431 34.3867 28.6013 34.1416 29.5267 33.7819C30.483 33.4103 31.2933 32.9122 32.1015 32.1031C32.9105 31.2946 33.4075 30.4831 33.7802 29.5267C34.1378 28.6016 34.3832 27.5443 34.456 25.9964C34.5256 24.4449 34.5438 23.9503 34.5438 20C34.5438 16.0497 34.5256 15.554 34.456 14.0025C34.3832 12.454 34.1378 11.397 33.7802 10.4722C33.4075 9.5155 32.9105 8.70398 32.1015 7.8955C31.2924 7.08641 30.4833 6.58944 29.5258 6.21823C28.5986 5.85853 27.541 5.61338 25.9926 5.54247C24.4411 5.47186 23.9472 5.45459 19.9958 5.45459H20.0003ZM18.6955 8.0758C19.0828 8.0752 19.5149 8.0758 20.0003 8.0758C23.8838 8.0758 24.3441 8.08974 25.8777 8.15944C27.2959 8.22429 28.0655 8.46126 28.5782 8.66035C29.257 8.92398 29.7409 9.23913 30.2497 9.74823C30.7588 10.2573 31.0739 10.7422 31.3382 11.421C31.5373 11.9331 31.7745 12.7028 31.8391 14.121C31.9088 15.6543 31.9239 16.1149 31.9239 19.9967C31.9239 23.8785 31.9088 24.3391 31.8391 25.8725C31.7742 27.2906 31.5373 28.0603 31.3382 28.5725C31.0745 29.2513 30.7588 29.7346 30.2497 30.2434C29.7406 30.7525 29.2573 31.0676 28.5782 31.3313C28.0661 31.5313 27.2959 31.7676 25.8777 31.8325C24.3444 31.9022 23.8838 31.9173 20.0003 31.9173C16.1165 31.9173 15.6562 31.9022 14.1229 31.8325C12.7048 31.767 11.9351 31.53 11.4221 31.331C10.7433 31.0673 10.2585 30.7522 9.74943 30.2431C9.24035 29.734 8.92521 29.2503 8.66097 28.5713C8.46189 28.0591 8.22462 27.2894 8.16008 25.8713C8.09039 24.3379 8.07645 23.8773 8.07645 19.9931C8.07645 16.1088 8.09039 15.6507 8.16008 14.1173C8.22493 12.6991 8.46189 11.9294 8.66097 11.4167C8.9246 10.7379 9.24035 10.2531 9.74943 9.74398C10.2585 9.23489 10.7433 8.91974 11.4221 8.6555C11.9348 8.4555 12.7048 8.21914 14.1229 8.15398C15.4647 8.09338 15.9847 8.0752 18.6955 8.07217V8.0758ZM27.7643 10.491C26.8007 10.491 26.0189 11.2719 26.0189 12.2358C26.0189 13.1994 26.8007 13.9813 27.7643 13.9813C28.7279 13.9813 29.5097 13.1994 29.5097 12.2358C29.5097 11.2722 28.7279 10.4903 27.7643 10.4903V10.491ZM20.0003 12.5303C15.8753 12.5303 12.5309 15.8749 12.5309 20C12.5309 24.1252 15.8753 27.4682 20.0003 27.4682C24.1254 27.4682 27.4686 24.1252 27.4686 20C27.4686 15.8749 24.1251 12.5303 20 12.5303H20.0003ZM20.0003 15.1516C22.6778 15.1516 24.8487 17.3222 24.8487 20C24.8487 22.6776 22.6778 24.8485 20.0003 24.8485C17.3225 24.8485 15.152 22.6776 15.152 20C15.152 17.3222 17.3225 15.1516 20.0003 15.1516Z" fill="url(#paint1_radial_6166_8145)"/>
</g>
<defs>
<radialGradient id="paint0_radial_6166_8145" cx="0" cy="0" r="1" gradientUnits="userSpaceOnUse" gradientTransform="translate(13.1811 36.7861) rotate(-90) scale(28.8312 26.8142)">
<stop stop-color="#FFDD55"/>
<stop offset="0.1" stop-color="#FFDD55"/>
<stop offset="0.5" stop-color="#FF543E"/>
<stop offset="1" stop-color="#C837AB"/>
</radialGradient>
<radialGradient id="paint1_radial_6166_8145" cx="0" cy="0" r="1" gradientUnits="userSpaceOnUse" gradientTransform="translate(0.581419 7.55025) rotate(78.6811) scale(12.8877 53.1215)">
<stop stop-color="#3771C8"/>
<stop offset="0.128" stop-color="#3771C8"/>
<stop offset="1" stop-color="#6600FF" stop-opacity="0"/>
</radialGradient>
</defs>
</svg>
